<svg width="67" height="24" viewBox="0 0 67 24" fill="none" xmlns="http://www.w3.org/2000/svg">
<path d="M18.7839 1.11167V4.86364H21.7433V7.62692H18.7839V11.6832H15.4928V1.11167H18.7839ZM18.7839 17.1084C18.7839 17.6999 18.6138 18.19 18.2736 18.5787C17.9335 18.9674 17.4657 19.1618 16.8705 19.1618H5.36452V19.9984C5.3599 20.0457 5.36677 20.0934 5.38453 20.1376C5.4023 20.1817 5.43045 20.2209 5.46659 20.2518L5.56866 20.3531C5.58567 20.4038 5.64521 20.4292 5.74728 20.4292H19.1666V23.1418H4.67573C4.25045 23.1418 3.94005 23.0911 3.74453 22.9896C3.50936 22.8567 3.29808 22.6854 3.11945 22.4828L2.71126 22.0771C2.51365 21.8672 2.35009 21.6277 2.22653 21.3673C2.14147 21.1645 2.09894 20.8266 2.09894 20.3536V17.5646C2.09216 17.4461 2.11414 17.3278 2.163 17.2196C2.21186 17.1114 2.28615 17.0167 2.37954 16.9435C2.59517 16.791 2.85561 16.7152 3.11936 16.728H15.2632C15.4503 16.728 15.5438 16.6435 15.5438 16.4745V15.5619H2.09903V12.8746H17.8144C18.4607 12.8746 18.7839 13.1619 18.7839 13.7365V17.1084ZM6.38512 0.858154C7.32057 0.858154 8.1497 0.997596 8.87251 1.27648C9.55262 1.52895 10.1767 1.91223 10.7094 2.40465C11.2003 2.86229 11.5874 3.41985 11.8446 4.03975C12.0993 4.65451 12.2294 5.31372 12.2273 5.97914V6.46082C12.2277 7.11779 12.0976 7.7683 11.8446 8.37461C11.5874 8.99454 11.2003 9.55213 10.7094 10.0098C10.1752 10.5034 9.55175 10.8906 8.87251 11.1506C8.14964 11.438 7.32051 11.5817 6.38512 11.5817C5.43265 11.5817 4.59927 11.4381 3.88496 11.1507C3.21339 10.8905 2.59833 10.5032 2.07351 10.01C1.59008 9.55123 1.2115 8.99344 0.963691 8.37478C0.718754 7.76649 0.593167 7.11675 0.59378 6.461V5.97914C0.591515 5.31493 0.717102 4.6565 0.963691 4.03975C1.2115 3.4211 1.59008 2.8633 2.07351 2.40456C2.59679 1.91246 3.21245 1.52901 3.88488 1.27639C4.59918 0.997566 5.43259 0.858154 6.38512 0.858154ZM9.03837 5.97906C9.03652 5.68276 8.9758 5.38978 8.85975 5.11715C8.73882 4.82707 8.56098 4.56415 8.33674 4.34395C8.09845 4.11006 7.81681 3.92492 7.50761 3.79891C7.15064 3.6574 6.76904 3.58845 6.38512 3.59609C6.00114 3.58843 5.61948 3.65738 5.26245 3.79891C4.95851 3.92089 4.68433 4.10677 4.45849 4.34395C4.04526 4.78879 3.81321 5.37201 3.80789 5.97914V6.46082C3.81321 7.06796 4.04526 7.65118 4.45849 8.09601C4.68433 8.3332 4.95851 8.51907 5.26245 8.64105C5.61948 8.78255 6.00114 8.85148 6.38512 8.84379C6.76898 8.85155 7.15055 8.78275 7.50752 8.6414C7.81673 8.51539 8.09837 8.33025 8.33665 8.09636C8.56089 7.87616 8.73873 7.61325 8.85967 7.32316C8.97573 7.0505 9.03644 6.7575 9.03829 6.46117L9.03837 5.97906ZM27.6622 12.5451V16.4745C27.6631 16.5938 27.6885 16.7115 27.7367 16.8206C27.785 16.9296 27.8551 17.0275 27.9428 17.1084L28.6826 18.0464C28.752 18.127 28.8382 18.1915 28.9352 18.2353C29.0321 18.2791 29.1375 18.3011 29.2439 18.2998H36.7697V21.1137H28.453C27.9427 21.1137 27.5473 21.063 27.2667 20.9615C26.9861 20.8601 26.6757 20.6236 26.3357 20.2519L25.1366 18.8068C25.0037 18.6628 24.8801 18.5104 24.7667 18.3505C24.6737 18.2162 24.5966 18.0716 24.5371 17.9195C24.4734 17.7485 24.4347 17.5692 24.4222 17.3871C24.4052 17.1843 24.3967 16.9309 24.3967 16.6269V10.6688C24.3967 10.0942 24.6943 9.80688 25.2896 9.80688H31.9738C32.2289 9.80688 32.3565 9.68012 32.3565 9.42658V4.50876H24.4479V1.72032H34.729C35.3413 1.72032 35.6474 2.03299 35.6474 2.65833V10.7198C35.6474 11.9367 35.0266 12.5451 33.785 12.5451H27.6622ZM42.9183 1.11167V22.8377H39.6527V1.11167H42.9183ZM66.1342 1.11167V22.8377H62.8687V1.11167H66.1342ZM52.0005 21.0884C51.7534 21.0907 51.5063 21.078 51.2607 21.0504C51.0684 21.0279 50.8798 20.9809 50.6994 20.9106C50.5256 20.8408 50.3624 20.747 50.2147 20.6317C50.0317 20.4854 49.8611 20.3243 49.7044 20.1501L48.4544 18.781C48.306 18.6224 48.1696 18.4529 48.0462 18.2742C47.9472 18.128 47.8658 17.9705 47.8039 17.8052C47.7389 17.6208 47.6961 17.4293 47.6763 17.2348C47.6486 16.9738 47.6359 16.7114 47.638 16.4489V2.65807C47.638 2.03273 47.9356 1.72006 48.5309 1.72006H58.2255C58.8378 1.72006 59.1439 2.03273 59.1439 2.65807V20.1252C59.1439 20.7674 58.8378 21.0885 58.2255 21.0885L52.0005 21.0884ZM55.8528 18.2237V4.55945H50.9036V16.2464C50.9003 16.3751 50.9175 16.5034 50.9546 16.6267C51.0124 16.7624 51.0995 16.8836 51.2097 16.9816L52.0771 17.9449C52.1663 18.0424 52.2749 18.1202 52.396 18.1731C52.4985 18.2083 52.6064 18.2255 52.7149 18.2238L55.8528 18.2237Z" fill="black"/>
</svg>
