<svg width="141" height="24" viewBox="0 0 141 24" fill="none" xmlns="http://www.w3.org/2000/svg">
<path d="M135.333 3C135.333 4.47276 136.527 5.66667 138 5.66667C139.473 5.66667 140.667 4.47276 140.667 3C140.667 1.52724 139.473 0.333333 138 0.333333C136.527 0.333333 135.333 1.52724 135.333 3ZM3 3V2.5H2.5V3H3ZM3 24L5.88675 19H0.113249L3 24ZM3.5 22.95C3.5 22.6739 3.27614 22.45 3 22.45C2.72386 22.45 2.5 22.6739 2.5 22.95H3.5ZM2.5 20.85C2.5 21.1261 2.72386 21.35 3 21.35C3.27614 21.35 3.5 21.1261 3.5 20.85H2.5ZM3.5 18.75C3.5 18.4739 3.27614 18.25 3 18.25C2.72386 18.25 2.5 18.4739 2.5 18.75H3.5ZM2.5 16.65C2.5 16.9261 2.72386 17.15 3 17.15C3.27614 17.15 3.5 16.9261 3.5 16.65H2.5ZM3.5 14.55C3.5 14.2739 3.27614 14.05 3 14.05C2.72386 14.05 2.5 14.2739 2.5 14.55H3.5ZM2.5 12.45C2.5 12.7261 2.72386 12.95 3 12.95C3.27614 12.95 3.5 12.7261 3.5 12.45H2.5ZM3.5 10.35C3.5 10.0739 3.27614 9.85 3 9.85C2.72386 9.85 2.5 10.0739 2.5 10.35H3.5ZM2.5 8.25C2.5 8.52614 2.72386 8.75 3 8.75C3.27614 8.75 3.5 8.52614 3.5 8.25H2.5ZM3.5 6.15C3.5 5.87386 3.27614 5.65 3 5.65C2.72386 5.65 2.5 5.87386 2.5 6.15H3.5ZM2.5 4.05C2.5 4.32614 2.72386 4.55 3 4.55C3.27614 4.55 3.5 4.32614 3.5 4.05H2.5ZM3.99265 3.5C4.26879 3.5 4.49265 3.27614 4.49265 3C4.49265 2.72386 4.26879 2.5 3.99265 2.5V3.5ZM5.97794 2.5C5.7018 2.5 5.47794 2.72386 5.47794 3C5.47794 3.27614 5.7018 3.5 5.97794 3.5V2.5ZM7.96323 3.5C8.23938 3.5 8.46323 3.27614 8.46323 3C8.46323 2.72386 8.23938 2.5 7.96323 2.5V3.5ZM9.94853 2.5C9.67239 2.5 9.44853 2.72386 9.44853 3C9.44853 3.27614 9.67239 3.5 9.94853 3.5V2.5ZM11.9338 3.5C12.21 3.5 12.4338 3.27614 12.4338 3C12.4338 2.72386 12.21 2.5 11.9338 2.5V3.5ZM13.9191 2.5C13.643 2.5 13.4191 2.72386 13.4191 3C13.4191 3.27614 13.643 3.5 13.9191 3.5V2.5ZM15.9044 3.5C16.1806 3.5 16.4044 3.27614 16.4044 3C16.4044 2.72386 16.1806 2.5 15.9044 2.5V3.5ZM17.8897 2.5C17.6136 2.5 17.3897 2.72386 17.3897 3C17.3897 3.27614 17.6136 3.5 17.8897 3.5V2.5ZM19.875 3.5C20.1511 3.5 20.375 3.27614 20.375 3C20.375 2.72386 20.1511 2.5 19.875 2.5V3.5ZM21.8603 2.5C21.5842 2.5 21.3603 2.72386 21.3603 3C21.3603 3.27614 21.5842 3.5 21.8603 3.5V2.5ZM23.8456 3.5C24.1217 3.5 24.3456 3.27614 24.3456 3C24.3456 2.72386 24.1217 2.5 23.8456 2.5V3.5ZM25.8309 2.5C25.5547 2.5 25.3309 2.72386 25.3309 3C25.3309 3.27614 25.5547 3.5 25.8309 3.5V2.5ZM27.8162 3.5C28.0923 3.5 28.3162 3.27614 28.3162 3C28.3162 2.72386 28.0923 2.5 27.8162 2.5V3.5ZM29.8015 2.5C29.5253 2.5 29.3015 2.72386 29.3015 3C29.3015 3.27614 29.5253 3.5 29.8015 3.5V2.5ZM31.7868 3.5C32.0629 3.5 32.2868 3.27614 32.2868 3C32.2868 2.72386 32.0629 2.5 31.7868 2.5V3.5ZM33.7721 2.5C33.4959 2.5 33.2721 2.72386 33.2721 3C33.2721 3.27614 33.4959 3.5 33.7721 3.5V2.5ZM35.7574 3.5C36.0335 3.5 36.2574 3.27614 36.2574 3C36.2574 2.72386 36.0335 2.5 35.7574 2.5V3.5ZM37.7426 2.5C37.4665 2.5 37.2426 2.72386 37.2426 3C37.2426 3.27614 37.4665 3.5 37.7426 3.5V2.5ZM39.7279 3.5C40.0041 3.5 40.2279 3.27614 40.2279 3C40.2279 2.72386 40.0041 2.5 39.7279 2.5V3.5ZM41.7132 2.5C41.4371 2.5 41.2132 2.72386 41.2132 3C41.2132 3.27614 41.4371 3.5 41.7132 3.5V2.5ZM43.6985 3.5C43.9747 3.5 44.1985 3.27614 44.1985 3C44.1985 2.72386 43.9747 2.5 43.6985 2.5V3.5ZM45.6838 2.5C45.4077 2.5 45.1838 2.72386 45.1838 3C45.1838 3.27614 45.4077 3.5 45.6838 3.5V2.5ZM47.6691 3.5C47.9453 3.5 48.1691 3.27614 48.1691 3C48.1691 2.72386 47.9453 2.5 47.6691 2.5V3.5ZM49.6544 2.5C49.3783 2.5 49.1544 2.72386 49.1544 3C49.1544 3.27614 49.3783 3.5 49.6544 3.5V2.5ZM51.6397 3.5C51.9158 3.5 52.1397 3.27614 52.1397 3C52.1397 2.72386 51.9158 2.5 51.6397 2.5V3.5ZM53.625 2.5C53.3489 2.5 53.125 2.72386 53.125 3C53.125 3.27614 53.3489 3.5 53.625 3.5V2.5ZM55.6103 3.5C55.8864 3.5 56.1103 3.27614 56.1103 3C56.1103 2.72386 55.8864 2.5 55.6103 2.5V3.5ZM57.5956 2.5C57.3194 2.5 57.0956 2.72386 57.0956 3C57.0956 3.27614 57.3194 3.5 57.5956 3.5V2.5ZM59.5809 3.5C59.857 3.5 60.0809 3.27614 60.0809 3C60.0809 2.72386 59.857 2.5 59.5809 2.5V3.5ZM61.5662 2.5C61.29 2.5 61.0662 2.72386 61.0662 3C61.0662 3.27614 61.29 3.5 61.5662 3.5V2.5ZM63.5515 3.5C63.8276 3.5 64.0515 3.27614 64.0515 3C64.0515 2.72386 63.8276 2.5 63.5515 2.5V3.5ZM65.5368 2.5C65.2606 2.5 65.0368 2.72386 65.0368 3C65.0368 3.27614 65.2606 3.5 65.5368 3.5V2.5ZM67.5221 3.5C67.7982 3.5 68.0221 3.27614 68.0221 3C68.0221 2.72386 67.7982 2.5 67.5221 2.5V3.5ZM69.5074 2.5C69.2312 2.5 69.0074 2.72386 69.0074 3C69.0074 3.27614 69.2312 3.5 69.5074 3.5V2.5ZM71.4926 3.5C71.7688 3.5 71.9926 3.27614 71.9926 3C71.9926 2.72386 71.7688 2.5 71.4926 2.5V3.5ZM73.4779 2.5C73.2018 2.5 72.9779 2.72386 72.9779 3C72.9779 3.27614 73.2018 3.5 73.4779 3.5V2.5ZM75.4632 3.5C75.7394 3.5 75.9632 3.27614 75.9632 3C75.9632 2.72386 75.7394 2.5 75.4632 2.5V3.5ZM77.4485 2.5C77.1724 2.5 76.9485 2.72386 76.9485 3C76.9485 3.27614 77.1724 3.5 77.4485 3.5V2.5ZM79.4338 3.5C79.7099 3.5 79.9338 3.27614 79.9338 3C79.9338 2.72386 79.7099 2.5 79.4338 2.5V3.5ZM81.4191 2.5C81.143 2.5 80.9191 2.72386 80.9191 3C80.9191 3.27614 81.143 3.5 81.4191 3.5V2.5ZM83.4044 3.5C83.6805 3.5 83.9044 3.27614 83.9044 3C83.9044 2.72386 83.6805 2.5 83.4044 2.5V3.5ZM85.3897 2.5C85.1135 2.5 84.8897 2.72386 84.8897 3C84.8897 3.27614 85.1135 3.5 85.3897 3.5V2.5ZM87.375 3.5C87.6511 3.5 87.875 3.27614 87.875 3C87.875 2.72386 87.6511 2.5 87.375 2.5V3.5ZM89.3603 2.5C89.0841 2.5 88.8603 2.72386 88.8603 3C88.8603 3.27614 89.0841 3.5 89.3603 3.5V2.5ZM91.3456 3.5C91.6217 3.5 91.8456 3.27614 91.8456 3C91.8456 2.72386 91.6217 2.5 91.3456 2.5V3.5ZM93.3308 2.5C93.0547 2.5 92.8308 2.72386 92.8308 3C92.8308 3.27614 93.0547 3.5 93.3308 3.5V2.5ZM95.3161 3.5C95.5923 3.5 95.8161 3.27614 95.8161 3C95.8161 2.72386 95.5923 2.5 95.3161 2.5V3.5ZM97.3014 2.5C97.0253 2.5 96.8014 2.72386 96.8014 3C96.8014 3.27614 97.0253 3.5 97.3014 3.5V2.5ZM99.2867 3.5C99.5629 3.5 99.7867 3.27614 99.7867 3C99.7867 2.72386 99.5629 2.5 99.2867 2.5V3.5ZM101.272 2.5C100.996 2.5 100.772 2.72386 100.772 3C100.772 3.27614 100.996 3.5 101.272 3.5V2.5ZM103.257 3.5C103.533 3.5 103.757 3.27614 103.757 3C103.757 2.72386 103.533 2.5 103.257 2.5V3.5ZM105.243 2.5C104.966 2.5 104.743 2.72386 104.743 3C104.743 3.27614 104.966 3.5 105.243 3.5V2.5ZM107.228 3.5C107.504 3.5 107.728 3.27614 107.728 3C107.728 2.72386 107.504 2.5 107.228 2.5V3.5ZM109.213 2.5C108.937 2.5 108.713 2.72386 108.713 3C108.713 3.27614 108.937 3.5 109.213 3.5V2.5ZM111.198 3.5C111.475 3.5 111.698 3.27614 111.698 3C111.698 2.72386 111.475 2.5 111.198 2.5V3.5ZM113.184 2.5C112.908 2.5 112.684 2.72386 112.684 3C112.684 3.27614 112.908 3.5 113.184 3.5V2.5ZM115.169 3.5C115.445 3.5 115.669 3.27614 115.669 3C115.669 2.72386 115.445 2.5 115.169 2.5V3.5ZM117.154 2.5C116.878 2.5 116.654 2.72386 116.654 3C116.654 3.27614 116.878 3.5 117.154 3.5V2.5ZM119.14 3.5C119.416 3.5 119.64 3.27614 119.64 3C119.64 2.72386 119.416 2.5 119.14 2.5V3.5ZM121.125 2.5C120.849 2.5 120.625 2.72386 120.625 3C120.625 3.27614 120.849 3.5 121.125 3.5V2.5ZM123.11 3.5C123.386 3.5 123.61 3.27614 123.61 3C123.61 2.72386 123.386 2.5 123.11 2.5V3.5ZM125.095 2.5C124.819 2.5 124.595 2.72386 124.595 3C124.595 3.27614 124.819 3.5 125.095 3.5V2.5ZM127.081 3.5C127.357 3.5 127.581 3.27614 127.581 3C127.581 2.72386 127.357 2.5 127.081 2.5V3.5ZM129.066 2.5C128.79 2.5 128.566 2.72386 128.566 3C128.566 3.27614 128.79 3.5 129.066 3.5V2.5ZM131.051 3.5C131.327 3.5 131.551 3.27614 131.551 3C131.551 2.72386 131.327 2.5 131.051 2.5V3.5ZM133.037 2.5C132.761 2.5 132.537 2.72386 132.537 3C132.537 3.27614 132.761 3.5 133.037 3.5V2.5ZM135.022 3.5C135.298 3.5 135.522 3.27614 135.522 3C135.522 2.72386 135.298 2.5 135.022 2.5V3.5ZM137.007 2.5C136.731 2.5 136.507 2.72386 136.507 3C136.507 3.27614 136.731 3.5 137.007 3.5V2.5ZM3 20.85H3.5V18.75H3H2.5V20.85H3ZM3 16.65H3.5V14.55H3H2.5V16.65H3ZM3 12.45H3.5V10.35H3H2.5V12.45H3ZM3 8.25H3.5V6.15H3H2.5V8.25H3ZM3 4.05H3.5V3H3H2.5V4.05H3ZM3 3V3.5H3.99265V3V2.5H3V3ZM5.97794 3V3.5H7.96323V3V2.5H5.97794V3ZM9.94853 3V3.5H11.9338V3V2.5H9.94853V3ZM13.9191 3V3.5H15.9044V3V2.5H13.9191V3ZM17.8897 3V3.5H19.875V3V2.5H17.8897V3ZM21.8603 3V3.5H23.8456V3V2.5H21.8603V3ZM25.8309 3V3.5H27.8162V3V2.5H25.8309V3ZM29.8015 3V3.5H31.7868V3V2.5H29.8015V3ZM33.7721 3V3.5H35.7574V3V2.5H33.7721V3ZM37.7426 3V3.5H39.7279V3V2.5H37.7426V3ZM41.7132 3V3.5H43.6985V3V2.5H41.7132V3ZM45.6838 3V3.5H47.6691V3V2.5H45.6838V3ZM49.6544 3V3.5H51.6397V3V2.5H49.6544V3ZM53.625 3V3.5H55.6103V3V2.5H53.625V3ZM57.5956 3V3.5H59.5809V3V2.5H57.5956V3ZM61.5662 3V3.5H63.5515V3V2.5H61.5662V3ZM65.5368 3V3.5H67.5221V3V2.5H65.5368V3ZM69.5074 3V3.5H71.4926V3V2.5H69.5074V3ZM73.4779 3V3.5H75.4632V3V2.5H73.4779V3ZM77.4485 3V3.5H79.4338V3V2.5H77.4485V3ZM81.4191 3V3.5H83.4044V3V2.5H81.4191V3ZM85.3897 3V3.5H87.375V3V2.5H85.3897V3ZM89.3603 3V3.5H91.3456V3V2.5H89.3603V3ZM93.3308 3V3.5H95.3161V3V2.5H93.3308V3ZM97.3014 3V3.5H99.2867V3V2.5H97.3014V3ZM101.272 3V3.5H103.257V3V2.5H101.272V3ZM105.243 3V3.5H107.228V3V2.5H105.243V3ZM109.213 3V3.5H111.198V3V2.5H109.213V3ZM113.184 3V3.5H115.169V3V2.5H113.184V3ZM117.154 3V3.5H119.14V3V2.5H117.154V3ZM121.125 3V3.5H123.11V3V2.5H121.125V3ZM125.095 3V3.5H127.081V3V2.5H125.095V3ZM129.066 3V3.5H131.051V3V2.5H129.066V3ZM133.037 3V3.5H135.022V3V2.5H133.037V3ZM137.007 3V3.5H138V3V2.5H137.007V3Z" fill="#FF0000"/>
</svg>
